<?xml version="1.0" encoding="UTF-8"?>
<svg id="Layer_2" data-name="Layer 2" xmlns="http://www.w3.org/2000/svg" viewBox="0 0 129.35 265.99">
  <defs>
    <style>
      .cls-1 {
        fill: none;
        stroke: #000;
        stroke-linecap: round;
        stroke-linejoin: round;
        stroke-width: 6px;
      }
    </style>
  </defs>
  <g id="OBJECTS">
    <g>
      <path class="cls-1" d="M96.93,94.9s-6.79-78.96-18.48-79.17c-11.68-.21-7.93,42.97-7.93,42.97,0,0-7.93-56.11-19.61-55.69-11.68.42-3.19,57.16-3.19,57.16,0,0-9.12-41.51-19.34-40.68s-2.5,46.73-2.5,46.73c0,0-7.51-31.08-18.77-29.2-11.26,1.88,4.17,43.18,4.17,43.18,5.4,60.41,10.8,122.4,16.21,182.81"/>
      <path class="cls-1" d="M112.25,250.38c-1.24-11.04-2.88-27.1-4.29-46.57-2.78-38.28-4.17-57.42-1.69-68.61,6.81-30.83,25.99-54.68,18.28-62.93-.36-.39-1.19-1.28-2.56-1.67-8.87-2.54-22.41,21.71-25.07,24.31h-2.05c-2.53.09-13.29.77-21.87,9.47-6.25,6.33-8.03,13.57-8.59,16.55"/>
    </g>
  </g>
</svg>