<svg width="252" height="370" viewBox="0 0 252 370" fill="none" xmlns="http://www.w3.org/2000/svg">
<g clip-path="url(#clip0_10216_127)">
<path d="M59.7614 360.945C56.06 360.945 52.775 359.33 50.667 356.831V370H68.8559V356.831C66.7479 359.33 63.4629 360.945 59.7614 360.945Z" fill="url(#paint0_linear_10216_127)"/>
<path d="M0 178.127C2.21215 164.769 15.8727 151.651 29.6204 150.981L239.321 151.624C263.586 162.178 248.366 190.035 231.747 201.109C197.174 224.147 154.64 205.891 118.6 209.581C57.4217 215.844 90.2988 302.813 137.694 271.27C161.486 255.435 167.58 228.213 203.142 217.102C229.662 208.815 268.515 222.552 244.453 251.355C217.778 283.287 178.75 311.586 151.808 344.198C132.755 361.16 109.139 371.803 83.1136 369.747C104.626 315.067 56.0985 262.121 0 282.561L0 178.127Z" fill="url(#paint1_linear_10216_127)"/>
<path d="M38.512 146.696C37.7154 142.965 39.6453 142.731 41.9041 140.964C53.1347 132.175 74.5603 121.654 87.8229 113.901C117.825 96.3614 152.517 74.2291 183.099 59.1585C228.631 36.7213 225.537 92.1793 200.75 117.374C195.943 122.259 159.441 146.696 155.062 146.696H38.512Z" fill="url(#paint2_linear_10216_127)"/>
<path d="M16.2168 148.704L96.4476 8.96858C111.017 -10.0212 131.709 4.18882 136.444 23.3728C142.18 46.6165 134.559 66.8073 123.354 86.5838L16.2168 148.704Z" fill="url(#paint3_linear_10216_127)"/>
<path d="M0 162.918V15.8993C0 10.8909 8.30623 2.30386 13.6079 1.11335C41.0892 -5.05762 66.075 37.4673 59.8421 61.5899C56.9401 72.8214 27.8268 119.369 19.86 133.105C14.0783 143.074 7.94846 154.611 0 162.918Z" fill="url(#paint4_linear_10216_127)"/>
<path d="M22.0777 311.796V301.462L22.603 300.936H34.5091L35.0343 301.462V334.743L34.5091 335.269H22.2528L15.4244 324.759V335.269H2.99304L2.46777 334.743V301.462L2.99304 300.936H14.8991L22.0777 311.796Z" fill="url(#paint5_linear_10216_127)"/>
<path d="M32.7769 370V353.148C32.7769 351.097 29.4233 351.448 29.4233 352.721V369.36L28.8643 370H18.0581L17.4991 369.36V353.148C17.4991 351.801 14.1454 351.057 14.1454 352.721V369.36L13.5865 370H2.40758L1.84863 369.36L1.96837 350.021C1.96837 349.765 2.92482 346.156 3.1556 345.685C6.53005 338.808 14.8737 335.309 22.8868 340.984C28.7014 335.446 39.9832 337.471 43.4115 345.239C43.8507 346.234 45.0737 350.122 45.0737 351.015V369.36L44.5148 370H32.7769Z" fill="url(#paint6_linear_10216_127)"/>
<path d="M52.2662 323.725C52.4305 324.829 54.4949 326.322 55.5339 326.265C56.5527 326.209 58.5694 324.753 58.5694 323.725L58.8409 301.323L59.3662 300.798H71.6224L72.1477 301.323L71.8761 323.725C71.8761 339.341 39.3096 339.161 39.3096 324.016L39.5811 300.798H52.0124L52.5377 301.323L52.2662 323.725Z" fill="url(#paint7_linear_10216_127)"/>
<path d="M59.7617 359.415C65.4457 359.415 70.0536 354.805 70.0536 349.119C70.0536 343.432 65.4457 338.822 59.7617 338.822C54.0776 338.822 49.4697 343.432 49.4697 349.119C49.4697 354.805 54.0776 359.415 59.7617 359.415Z" fill="url(#paint8_linear_10216_127)"/>
</g>
<defs>
<linearGradient id="paint0_linear_10216_127" x1="129.728" y1="453.743" x2="-135.639" y2="111.455" gradientUnits="userSpaceOnUse">
<stop offset="0.257311" stop-color="#F26522"/>
<stop offset="0.745848" stop-color="#C7E9F5"/>
<stop offset="0.777924" stop-color="#C8E4F0"/>
<stop offset="0.812746" stop-color="#CCD7E3"/>
<stop offset="0.848856" stop-color="#D3C1CE"/>
<stop offset="0.885848" stop-color="#DCA3AF"/>
<stop offset="0.923173" stop-color="#E87C89"/>
<stop offset="0.944656" stop-color="#F16370"/>
</linearGradient>
<linearGradient id="paint1_linear_10216_127" x1="239.198" y1="368.875" x2="-26.1692" y2="26.5867" gradientUnits="userSpaceOnUse">
<stop offset="0.257311" stop-color="#F26522"/>
<stop offset="0.745848" stop-color="#C7E9F5"/>
<stop offset="0.777924" stop-color="#C8E4F0"/>
<stop offset="0.812746" stop-color="#CCD7E3"/>
<stop offset="0.848856" stop-color="#D3C1CE"/>
<stop offset="0.885848" stop-color="#DCA3AF"/>
<stop offset="0.923173" stop-color="#E87C89"/>
<stop offset="0.944656" stop-color="#F16370"/>
</linearGradient>
<linearGradient id="paint2_linear_10216_127" x1="263.738" y1="57.3563" x2="-28.8334" y2="198.703" gradientUnits="userSpaceOnUse">
<stop offset="0.104066" stop-color="#F26522"/>
<stop offset="0.299434" stop-color="#F16370"/>
<stop offset="0.652442" stop-color="#C7E9F5"/>
<stop offset="0.699588" stop-color="#C8E4F0"/>
<stop offset="0.75077" stop-color="#CCD7E3"/>
<stop offset="0.803846" stop-color="#D3C1CE"/>
<stop offset="0.858218" stop-color="#DCA3AF"/>
<stop offset="0.913079" stop-color="#E87C89"/>
<stop offset="0.944656" stop-color="#F16370"/>
</linearGradient>
<linearGradient id="paint3_linear_10216_127" x1="171.026" y1="-22.5317" x2="-12.3799" y2="188.097" gradientUnits="userSpaceOnUse">
<stop offset="0.00957107" stop-color="#006838"/>
<stop offset="0.426689" stop-color="#C7E9F5"/>
<stop offset="0.490835" stop-color="#C8E4F0"/>
<stop offset="0.560472" stop-color="#CCD7E3"/>
<stop offset="0.632687" stop-color="#D3C1CE"/>
<stop offset="0.706664" stop-color="#DCA3AF"/>
<stop offset="0.781307" stop-color="#E87C89"/>
<stop offset="0.82427" stop-color="#F16370"/>
</linearGradient>
<linearGradient id="paint4_linear_10216_127" x1="239.467" y1="368.666" x2="-25.8996" y2="26.3777" gradientUnits="userSpaceOnUse">
<stop offset="0.257311" stop-color="#F26522"/>
<stop offset="0.745848" stop-color="#C7E9F5"/>
<stop offset="0.777924" stop-color="#C8E4F0"/>
<stop offset="0.812746" stop-color="#CCD7E3"/>
<stop offset="0.848856" stop-color="#D3C1CE"/>
<stop offset="0.885848" stop-color="#DCA3AF"/>
<stop offset="0.923173" stop-color="#E87C89"/>
<stop offset="0.944656" stop-color="#F16370"/>
</linearGradient>
<linearGradient id="paint5_linear_10216_127" x1="126.035" y1="456.608" x2="-139.332" y2="114.319" gradientUnits="userSpaceOnUse">
<stop offset="0.257311" stop-color="#F26522"/>
<stop offset="0.745848" stop-color="#C7E9F5"/>
<stop offset="0.777924" stop-color="#C8E4F0"/>
<stop offset="0.812746" stop-color="#CCD7E3"/>
<stop offset="0.848856" stop-color="#D3C1CE"/>
<stop offset="0.885848" stop-color="#DCA3AF"/>
<stop offset="0.923173" stop-color="#E87C89"/>
<stop offset="0.944656" stop-color="#F16370"/>
</linearGradient>
<linearGradient id="paint6_linear_10216_127" x1="109.621" y1="469.332" x2="-155.746" y2="127.044" gradientUnits="userSpaceOnUse">
<stop offset="0.257311" stop-color="#F26522"/>
<stop offset="0.745848" stop-color="#C7E9F5"/>
<stop offset="0.777924" stop-color="#C8E4F0"/>
<stop offset="0.812746" stop-color="#CCD7E3"/>
<stop offset="0.848856" stop-color="#D3C1CE"/>
<stop offset="0.885848" stop-color="#DCA3AF"/>
<stop offset="0.923173" stop-color="#E87C89"/>
<stop offset="0.944656" stop-color="#F16370"/>
</linearGradient>
<linearGradient id="paint7_linear_10216_127" x1="150.981" y1="437.267" x2="-114.386" y2="94.9781" gradientUnits="userSpaceOnUse">
<stop offset="0.257311" stop-color="#F26522"/>
<stop offset="0.745848" stop-color="#C7E9F5"/>
<stop offset="0.777924" stop-color="#C8E4F0"/>
<stop offset="0.812746" stop-color="#CCD7E3"/>
<stop offset="0.848856" stop-color="#D3C1CE"/>
<stop offset="0.885848" stop-color="#DCA3AF"/>
<stop offset="0.923173" stop-color="#E87C89"/>
<stop offset="0.944656" stop-color="#F16370"/>
</linearGradient>
<linearGradient id="paint8_linear_10216_127" x1="136.647" y1="448.379" x2="-128.72" y2="106.091" gradientUnits="userSpaceOnUse">
<stop offset="0.257311" stop-color="#F26522"/>
<stop offset="0.745848" stop-color="#C7E9F5"/>
<stop offset="0.777924" stop-color="#C8E4F0"/>
<stop offset="0.812746" stop-color="#CCD7E3"/>
<stop offset="0.848856" stop-color="#D3C1CE"/>
<stop offset="0.885848" stop-color="#DCA3AF"/>
<stop offset="0.923173" stop-color="#E87C89"/>
<stop offset="0.944656" stop-color="#F16370"/>
</linearGradient>
<clipPath id="clip0_10216_127">
<rect width="252" height="370" fill="white"/>
</clipPath>
</defs>
</svg>
